<?xml version="1.0" standalone="no"?>
<!DOCTYPE svg PUBLIC "-//W3C//DTD SVG 20010904//EN"
 "http://www.w3.org/TR/2001/REC-SVG-20010904/DTD/svg10.dtd">
<svg version="1.0" xmlns="http://www.w3.org/2000/svg"
 width="979.000000pt" height="1080.000000pt" viewBox="0 0 979.000000 1080.000000"
 preserveAspectRatio="xMidYMid meet">

<g transform="translate(0.000000,1080.000000) scale(0.100000,-0.100000)"
fill="#000000" stroke="none">
<path d="M5820 10768 c-63 -102 -185 -554 -244 -898 -32 -186 -88 -601 -82
-607 2 -2 7 15 11 39 21 129 201 850 295 1178 46 162 60 228 60 280 0 48 -14
51 -40 8z"/>
<path d="M3627 10687 c-19 -15 -9 -96 28 -244 25 -98 316 -995 322 -990 1 2
-28 142 -66 313 -141 630 -171 744 -225 868 -27 61 -37 70 -59 53z"/>
<path d="M7564 9958 c-83 -91 -141 -172 -371 -521 -113 -172 -236 -359 -274
-417 -39 -58 -58 -89 -42 -70 662 815 800 1001 780 1054 -11 29 -34 17 -93
-46z"/>
<path d="M1414 9755 c-4 -9 -1 -28 5 -44 19 -45 892 -898 1059 -1034 l77 -62
-74 90 c-41 50 -131 149 -201 220 -105 108 -465 494 -704 752 -61 66 -100 93
-136 93 -11 0 -23 -7 -26 -15z"/>
<path d="M3981 9424 c0 -11 3 -14 6 -6 3 7 2 16 -1 19 -3 4 -6 -2 -5 -13z"/>
<path d="M4670 8769 c-239 -16 -413 -46 -612 -105 -460 -135 -894 -412 -1179
-752 -329 -394 -499 -863 -499 -1382 0 -275 43 -497 146 -752 92 -230 197
-411 429 -743 300 -429 428 -679 479 -935 8 -41 27 -178 41 -303 14 -126 33
-265 41 -308 31 -167 104 -329 191 -429 71 -80 77 -110 44 -208 -42 -125 -36
-178 27 -244 l35 -37 -33 -28 c-67 -56 -91 -173 -50 -253 11 -21 24 -41 30
-45 6 -3 -1 -23 -17 -47 -40 -60 -44 -151 -10 -212 l25 -45 -24 -47 c-44 -86
-27 -191 40 -253 23 -22 25 -29 19 -81 -4 -42 -1 -64 12 -89 9 -19 133 -151
274 -295 142 -143 266 -276 276 -293 26 -44 75 -66 165 -73 41 -4 -959 -8
-2222 -8 l-2298 -2 0 -400 0 -400 4895 0 4895 0 0 400 0 400 -2437 1 c-1341 1
-2401 5 -2355 10 97 9 167 39 191 81 9 16 92 106 184 201 93 95 222 229 288
299 131 139 137 155 104 235 -8 19 -15 44 -15 54 0 10 29 50 64 89 93 101 107
179 48 275 -18 29 -18 30 7 74 35 63 34 142 -3 205 l-27 46 27 46 c38 65 38
141 0 211 l-28 50 21 41 c28 54 26 104 -4 177 -13 33 -25 66 -25 73 0 8 26 40
59 71 52 52 63 70 104 177 78 201 92 266 127 589 25 226 49 353 91 472 51 146
170 365 308 568 305 448 363 536 420 639 215 389 311 791 282 1179 -35 470
-189 871 -469 1218 -87 108 -291 303 -410 392 -476 357 -1081 536 -1672 496z
m440 -123 c614 -98 1131 -375 1482 -795 405 -486 568 -1112 447 -1715 -58
-287 -178 -530 -452 -916 -477 -669 -573 -885 -632 -1420 -40 -363 -115 -585
-217 -648 -64 -40 -204 -76 -377 -98 l-54 -7 6 372 c6 347 5 381 -14 489 -18
105 -20 140 -14 342 7 198 5 230 -9 265 -23 54 -49 79 -96 95 -62 20 -65 29
-64 159 1 170 34 276 133 431 26 41 146 291 265 555 236 521 266 580 332 669
25 32 43 64 41 70 -8 28 -71 46 -139 42 -55 -4 -68 -2 -68 10 0 20 -25 28 -49
14 -18 -9 -21 -8 -21 10 0 32 -27 35 -64 6 -33 -25 -35 -25 -41 -7 -8 27 -29
32 -56 13 -13 -9 -34 -15 -46 -14 -13 2 -27 -4 -35 -17 -9 -15 -15 -17 -25 -9
-7 6 -21 8 -32 5 -25 -6 -33 43 -25 149 6 67 4 77 -7 66 -10 -9 -14 -39 -14
-102 0 -80 -2 -87 -16 -74 -20 18 -59 18 -96 0 -15 -8 -44 -21 -65 -29 -34
-15 -36 -15 -41 4 -6 21 -45 26 -78 9 -16 -9 -19 -7 -19 8 0 11 -7 25 -15 32
-12 10 -20 9 -40 -4 -25 -16 -27 -16 -44 6 -19 22 -20 22 -55 6 -24 -12 -37
-14 -42 -7 -3 6 -18 9 -32 6 -18 -3 -31 1 -43 16 l-17 21 -36 -27 c-33 -26
-36 -26 -36 -9 0 11 -6 22 -14 25 -18 7 -63 -27 -71 -54 l-7 -21 -21 20 c-27
25 -76 45 -94 38 -8 -3 -18 7 -27 27 -7 18 -25 43 -40 56 -14 14 -26 30 -26
37 0 14 -19 29 -26 21 -7 -7 13 -46 36 -72 34 -38 32 -58 -5 -76 -29 -14 -37
-14 -46 -3 -15 18 -28 18 -50 -2 -17 -15 -19 -15 -34 0 -19 18 -24 19 -44 7
-9 -6 -23 -4 -39 7 -19 12 -28 13 -42 4 -10 -6 -34 -8 -53 -5 -29 4 -38 1 -49
-16 -9 -14 -23 -21 -45 -21 -26 0 -36 -6 -47 -29 -12 -22 -21 -27 -39 -24 -24
5 -87 -38 -87 -59 0 -5 21 -44 47 -86 61 -101 120 -229 173 -377 52 -147 97
-237 202 -408 155 -251 199 -365 240 -607 13 -83 21 -175 22 -276 l1 -152 -34
-42 c-71 -89 -96 -258 -67 -453 21 -141 20 -178 -6 -300 -27 -130 -27 -214 3
-352 18 -84 23 -141 23 -242 0 -73 -3 -135 -6 -138 -10 -10 -236 16 -318 36
-249 63 -332 224 -385 744 -35 343 -100 559 -245 825 -58 106 -222 354 -391
590 -123 173 -215 321 -282 455 -328 659 -241 1465 224 2076 364 479 924 785
1618 884 120 18 435 12 571 -9z m-453 -2086 c-8 -73 4 -77 35 -12 13 26 30 47
38 47 8 0 13 -7 11 -15 -11 -42 -12 -68 -1 -75 17 -10 23 0 29 48 5 37 9 42
33 45 26 3 27 2 17 -30 -13 -46 -11 -58 6 -58 8 0 15 4 15 9 0 14 69 65 77 57
4 -3 -4 -24 -16 -47 -22 -39 -23 -69 -1 -69 6 0 18 15 26 34 14 28 58 66 78
66 10 0 6 -24 -9 -54 -14 -27 -13 -46 5 -46 4 0 22 14 40 30 41 38 63 40 50 5
-5 -14 -7 -25 -5 -25 3 0 8 0 11 1 4 0 12 -10 18 -23 14 -29 41 -33 94 -15
l40 14 -9 -26 c-6 -14 -37 -75 -69 -136 -51 -96 -63 -130 -95 -270 -85 -371
-73 -334 -108 -339 -24 -4 -216 -17 -302 -21 -5 0 -11 14 -13 30 -12 139 -53
306 -107 430 -10 22 -28 81 -42 130 -14 53 -37 110 -57 140 l-33 50 38 -3 c47
-5 64 20 55 82 -6 37 -3 45 23 70 33 32 45 23 31 -25 -12 -42 -13 -39 5 -39 8
0 15 6 15 14 0 15 62 86 75 86 4 0 5 -27 2 -60z m-655 0 c-4 -54 5 -80 30 -80
19 0 20 4 14 54 -10 87 24 84 41 -4 12 -64 36 -61 37 5 1 43 4 50 21 50 16 0
21 -8 23 -43 4 -52 25 -53 30 -1 7 64 45 80 46 19 1 -18 7 -35 14 -37 8 -3 12
6 12 24 0 31 16 53 38 53 11 0 13 -10 8 -45 -6 -37 -4 -45 8 -45 9 0 22 -13
31 -30 8 -16 36 -58 61 -94 37 -54 48 -79 60 -148 9 -46 33 -130 54 -188 51
-139 69 -214 77 -311 6 -86 1 -99 -41 -99 -38 0 -103 -40 -121 -73 -15 -29
-16 -39 -5 -71 7 -21 33 -61 57 -89 73 -82 85 -118 94 -297 4 -85 11 -216 15
-290 7 -134 6 -136 -17 -163 -13 -15 -45 -34 -70 -41 l-46 -14 -6 191 c-6 205
-23 327 -62 443 -31 92 -165 344 -266 499 -43 66 -92 150 -109 187 -30 64 -95
300 -125 458 -8 41 -24 87 -35 103 -23 30 -16 58 21 77 26 14 40 3 58 -47 16
-46 30 -65 42 -57 10 6 2 47 -17 86 -16 31 -8 60 15 56 12 -3 15 -13 13 -38z
m438 10 c24 -13 36 -66 20 -85 -24 -29 -50 -17 -71 30 -11 25 -17 50 -14 55 8
13 41 13 65 0z m805 -42 c6 -26 3 -35 -15 -50 -33 -26 -40 -22 -40 22 0 31 -4
40 -17 40 -15 1 -14 4 5 20 31 25 58 12 67 -32z m335 20 c0 -7 -7 -22 -15 -32
-8 -11 -15 -26 -15 -33 0 -23 26 -14 48 17 27 36 34 37 47 8 6 -13 24 -26 45
-31 55 -13 65 -28 50 -73 -7 -22 -20 -52 -30 -69 -10 -16 -44 -93 -75 -169
-147 -362 -304 -695 -431 -916 -140 -245 -170 -331 -175 -508 -1 -40 -5 -75
-9 -77 -14 -9 -49 27 -61 62 -9 28 -9 59 1 142 9 74 11 169 6 316 -5 143 -4
219 3 238 6 16 38 55 71 86 51 49 60 63 60 93 0 37 -19 61 -56 72 l-21 6 18
88 c30 146 87 385 99 417 6 17 33 68 60 115 26 47 54 104 61 127 6 23 17 41
23 40 5 -1 15 8 21 21 14 32 25 27 25 -13 0 -24 5 -35 15 -35 11 0 15 11 15
39 0 39 20 68 40 56 5 -3 10 -24 10 -46 0 -45 23 -51 28 -8 6 51 13 69 27 69
10 0 15 -10 15 -30 0 -40 18 -38 53 5 28 36 47 45 47 23z m-1553 -30 c-3 -8
-6 -5 -6 6 -1 11 2 17 5 13 3 -3 4 -12 1 -19z m1137 -6 c7 -12 -5 -52 -15 -52
-5 0 -9 14 -9 30 0 28 13 40 24 22z m-133 -914 c7 -13 0 -23 -37 -50 -83 -59
-89 -81 -89 -323 -1 -115 -5 -278 -9 -360 -8 -143 -8 -153 13 -193 16 -31 36
-50 77 -73 31 -18 58 -39 61 -47 9 -21 -14 -282 -32 -375 -8 -43 -15 -102 -15
-130 -1 -47 -4 -54 -33 -72 -43 -28 -74 -76 -89 -143 -15 -67 -18 -498 -5
-689 l9 -123 -80 0 -80 0 -11 63 c-6 34 -22 165 -36 292 -23 203 -25 240 -15
318 15 110 7 167 -28 208 -30 37 -85 63 -113 54 -10 -4 -19 -5 -19 -3 -1 2 -5
107 -11 233 -5 127 -12 249 -15 273 -10 74 -1 89 60 102 62 13 115 44 134 80
14 27 12 200 -7 445 -13 172 -26 226 -67 283 -107 146 -114 171 -63 197 35 19
105 33 199 41 36 4 67 8 70 11 3 2 54 3 113 1 90 -2 110 -5 118 -20z m149
-1072 c34 -37 39 -90 33 -316 -5 -180 -3 -220 16 -326 27 -158 27 -273 -4
-547 -13 -122 -25 -240 -27 -262 -2 -33 -7 -41 -25 -43 -13 -2 -24 -2 -24 0
-7 20 -20 314 -24 548 l-5 295 -32 89 -31 89 28 236 c31 274 40 295 95 237z
m-747 -198 c4 -79 10 -190 13 -248 6 -100 5 -109 -25 -196 -38 -113 -41 -202
-9 -378 22 -124 32 -409 16 -449 -18 -44 -28 1 -28 126 0 99 -7 167 -27 279
-26 140 -26 152 -14 231 23 137 25 266 6 379 -28 166 -20 340 17 386 6 6 18
12 28 12 15 0 18 -17 23 -142z m613 -412 c16 -13 18 -23 14 -83 -2 -37 -5
-236 -5 -441 l0 -372 -46 0 c-45 0 -47 1 -52 33 -9 48 -31 506 -31 627 0 122
13 176 53 219 33 35 39 37 67 17z m-447 -71 c12 -25 12 -45 3 -125 -17 -135
-15 -256 7 -432 11 -84 21 -178 23 -208 3 -51 2 -55 -19 -54 -13 0 -45 1 -72
2 l-48 2 -7 178 c-4 97 -16 237 -27 310 -22 155 -23 183 -8 252 21 100 114
147 148 75z m1062 -906 c4 -8 14 -38 22 -67 20 -67 9 -115 -31 -131 -30 -12
-283 -44 -309 -39 -10 2 0 14 31 36 25 18 53 46 61 62 19 37 19 84 0 103 -12
13 -5 16 63 26 42 6 91 15 107 20 36 11 46 9 56 -10z m-1397 -29 c71 -5 137
-10 146 -10 12 0 7 -11 -21 -40 -67 -71 -72 -149 -12 -220 l25 -30 -172 0
-172 0 32 36 c25 29 30 42 25 63 -10 35 -10 91 0 119 6 18 1 29 -28 56 -41 39
-38 49 13 42 19 -4 93 -10 164 -16z m1392 -373 c102 -53 71 -112 -69 -128 -39
-4 -100 -11 -135 -15 l-63 -7 29 31 c27 29 52 90 52 127 0 16 8 17 78 12 44
-2 92 -12 108 -20z m-1216 -39 c0 -5 -7 -11 -15 -15 -37 -14 -59 -117 -35
-162 8 -16 3 -19 -43 -25 -56 -6 -297 -8 -297 -2 0 2 7 20 15 39 17 41 20 124
5 147 -9 14 61 19 353 25 9 1 17 -3 17 -7z m1129 -249 c65 -14 133 -62 129
-91 -6 -40 -46 -57 -173 -73 -153 -19 -150 -19 -129 2 21 22 74 132 74 156 0
20 26 22 99 6z m-1172 -88 c-36 -43 -43 -94 -19 -142 l19 -39 -159 0 c-138 0
-159 2 -149 14 21 26 26 120 7 156 -9 18 -16 35 -16 37 0 1 77 3 171 3 l171 0
-25 -29z m1229 -257 c28 -14 64 -67 64 -97 0 -18 -59 -74 -90 -85 -14 -5 -71
-10 -126 -10 -96 -1 -102 0 -97 18 3 11 13 22 23 25 55 17 108 127 79 161 -12
15 -8 16 51 9 36 -4 79 -13 96 -21z m-1265 -60 c-30 -38 -36 -87 -17 -137 9
-23 15 -46 13 -50 -2 -9 -288 -10 -296 -1 -3 3 -1 8 5 12 5 4 19 20 31 35 17
22 20 34 13 52 -9 24 -4 62 12 82 5 7 7 17 3 23 -4 7 36 10 125 10 l131 0 -20
-26z m1193 -280 c20 -52 -10 -103 -108 -183 -75 -61 -82 -64 -264 -95 l-33 -6
20 28 c11 15 50 61 86 102 36 41 78 94 93 117 29 45 38 48 148 51 39 2 53 -2
58 -14z m-1264 -30 l66 -6 34 -122 c18 -66 36 -127 39 -135 3 -12 -8 -13 -65
-7 -125 12 -137 18 -185 94 -24 37 -46 69 -50 72 -8 6 -59 107 -59 116 0 6 45
4 220 -12z m-2098 -1011 c23 -20 23 -57 1 -74 -15 -11 -16 -11 -5 1 27 31 11
72 -33 83 -19 4 -19 5 -1 6 11 0 28 -6 38 -16z m-69 -8 c-3 -9 -8 -14 -10 -11
-3 3 -2 9 2 15 9 16 15 13 8 -4z m-1760 -114 c22 -61 43 -108 47 -104 4 4 24
56 45 116 21 59 42 107 47 107 11 0 9 -5 -42 -149 -23 -64 -44 -107 -53 -109
-15 -3 -17 0 -67 143 -15 44 -31 88 -36 99 -5 13 -3 17 6 14 8 -2 32 -55 53
-117z m517 89 c0 -23 4 -30 20 -30 11 0 20 -4 20 -10 0 -5 -10 -10 -21 -10
-20 0 -21 -4 -17 -71 3 -55 8 -74 23 -85 23 -17 14 -29 -13 -15 -11 6 -22 25
-26 42 -10 51 -7 209 4 209 6 0 10 -13 10 -30z m515 16 c25 -11 33 -19 29 -30
-7 -19 -5 -19 -40 -1 -36 18 -55 19 -78 2 -28 -21 -9 -45 49 -62 87 -25 108
-74 54 -127 -29 -29 -33 -30 -90 -25 -68 6 -72 8 -64 29 5 13 12 14 40 5 50
-15 100 1 100 33 0 16 -8 28 -25 36 -87 40 -105 51 -108 67 -14 70 53 106 133
73z m105 -16 c0 -25 4 -30 25 -30 16 0 25 -6 25 -15 0 -9 -9 -15 -25 -15 -24
0 -25 -3 -25 -60 0 -55 2 -62 25 -72 14 -6 25 -15 25 -20 0 -18 -31 -20 -55
-4 -24 16 -25 20 -25 131 0 96 3 115 15 115 10 0 15 -10 15 -30z m482 -32 l3
-62 36 32 c20 18 45 32 55 32 14 0 9 -9 -21 -40 l-39 -40 42 -60 c40 -57 41
-60 20 -60 -16 0 -32 14 -53 45 -16 25 -33 45 -37 45 -5 0 -8 -20 -8 -45 0
-38 -3 -45 -20 -45 -19 0 -20 7 -20 130 0 122 1 130 20 130 16 0 19 -8 22 -62z
m193 30 c1 -20 -2 -24 -11 -17 -8 7 -14 6 -17 -3 -3 -7 -6 2 -6 20 -1 27 3 33
17 30 11 -2 17 -13 17 -30z m-44 -35 c13 -16 12 -17 -3 -4 -17 13 -22 21 -14
21 2 0 10 -8 17 -17z m-1502 -19 c12 -15 21 -40 21 -55 0 -29 0 -29 -65 -29
-72 0 -83 -12 -44 -51 17 -17 30 -20 65 -16 43 4 59 -5 28 -17 -45 -17 -106 3
-123 41 -45 98 56 206 118 127z m191 16 c17 -11 10 -13 -40 -10 -47 2 -75 -28
-75 -80 0 -55 26 -80 82 -80 27 0 42 -4 38 -10 -9 -15 -78 -12 -102 5 -50 35
-50 135 0 170 24 17 74 20 97 5z m265 -13 c20 -16 28 -35 32 -69 5 -42 3 -50
-25 -78 -41 -41 -83 -41 -124 0 -28 28 -30 36 -25 78 9 82 84 119 142 69z m85
7 c0 -14 2 -14 22 0 24 17 38 20 38 9 0 -5 -14 -16 -30 -25 -29 -17 -30 -19
-30 -93 0 -43 -4 -75 -10 -75 -6 0 -10 40 -10 100 0 60 4 100 10 100 6 0 10
-7 10 -16z m537 1 c30 -21 44 -75 32 -120 -25 -88 -143 -88 -168 0 -20 72 20
135 84 135 17 0 40 -7 52 -15z m198 -5 c0 -10 -8 -14 -27 -12 -58 6 -91 -42
-67 -100 11 -28 36 -40 74 -35 12 1 20 -4 20 -13 0 -19 -48 -25 -85 -10 -63
26 -68 148 -6 179 31 15 91 9 91 -9z m5164 -83 c8 -26 17 -47 21 -47 4 0 13
21 21 47 8 25 20 48 26 50 13 5 -22 -113 -38 -131 -12 -14 -18 -5 -45 69 -16
44 -20 65 -12 63 7 -3 19 -26 27 -51z m638 38 c2 -6 -9 -11 -23 -10 -39 0 -42
-23 -5 -36 34 -12 49 -43 31 -64 -13 -16 -38 -19 -64 -9 -27 10 -18 22 17 20
38 -1 43 19 8 37 -36 18 -48 42 -31 62 14 17 61 17 67 0z m333 -20 c0 -35 16
-47 26 -20 4 8 13 15 22 15 13 0 13 -3 -2 -19 -16 -18 -16 -21 -1 -50 9 -18
11 -31 5 -31 -6 0 -16 11 -22 25 -6 14 -15 25 -20 25 -4 0 -8 -11 -8 -25 0
-14 -4 -25 -10 -25 -6 0 -10 30 -10 70 0 40 4 70 10 70 6 0 10 -16 10 -35z
m580 32 c0 -4 -34 -104 -45 -136 -3 -8 -8 -11 -11 -8 -8 7 38 147 48 147 4 0
8 -2 8 -3z m70 -57 c0 -33 4 -60 10 -60 6 0 10 -4 10 -10 0 -5 -13 -10 -30
-10 -16 0 -30 5 -30 10 0 6 5 10 10 10 6 0 10 20 10 45 0 38 -2 43 -17 38 -16
-6 -16 -4 1 15 29 34 36 27 36 -38z m117 48 c14 -23 12 -106 -2 -118 -33 -27
-86 8 -70 46 4 11 7 27 6 37 -5 38 47 64 66 35z m121 4 c22 -14 27 -78 8 -107
-32 -49 -86 -21 -86 45 0 56 39 86 78 62z m92 -52 c0 -33 4 -60 10 -60 6 0 10
-4 10 -10 0 -5 -13 -10 -30 -10 -16 0 -30 5 -30 10 0 6 5 10 10 10 6 0 10 20
10 45 0 38 -2 43 -17 38 -16 -6 -16 -4 1 15 29 34 36 27 36 -38z m130 50 c0
-5 -11 -10 -25 -10 -14 0 -29 -8 -36 -21 -9 -18 -8 -20 9 -15 12 4 28 -1 43
-13 21 -16 22 -22 11 -45 -21 -47 -92 -23 -92 31 0 27 17 64 34 75 16 11 56
10 56 -2z m98 2 c22 -14 27 -78 8 -107 -32 -49 -86 -21 -86 45 0 56 39 86 78
62z m114 -9 c39 -35 8 -122 -44 -123 -10 0 -18 5 -18 10 0 6 9 10 20 10 10 0
24 9 31 21 9 18 8 20 -9 15 -38 -12 -68 44 -40 72 17 17 38 15 60 -5z m120
-35 c2 -29 2 -61 0 -70 -5 -22 -22 -24 -22 -3 0 10 -10 15 -30 15 -16 0 -30 3
-30 6 0 16 56 104 67 104 6 0 13 -22 15 -52z m-2072 7 c9 -10 9 -15 1 -15 -15
0 -14 -57 2 -63 6 -2 9 -8 4 -13 -19 -20 -43 38 -38 94 1 16 16 15 31 -3z
m360 0 c9 -10 9 -15 1 -15 -15 0 -14 -57 2 -63 6 -2 9 -7 6 -11 -15 -17 -37 8
-41 47 -7 58 5 74 32 42z m-532 -7 c23 -23 13 -38 -24 -38 -46 0 -41 -23 7
-30 27 -4 30 -7 16 -13 -28 -11 -44 -9 -61 9 -32 31 -14 84 29 84 12 0 26 -5
33 -12z m117 3 c3 -5 -9 -11 -27 -13 -28 -2 -33 -7 -33 -28 0 -21 5 -26 33
-28 36 -4 34 -22 -3 -22 -28 0 -55 24 -55 50 0 37 67 69 85 41z m169 -7 c21
-20 20 -43 -1 -66 -20 -22 -46 -23 -67 -2 -31 30 -9 84 34 84 10 0 26 -7 34
-16z m86 6 c0 -4 -7 -10 -15 -14 -9 -3 -15 -19 -15 -41 0 -19 -4 -35 -10 -35
-5 0 -10 22 -10 49 0 45 2 49 25 49 14 0 25 -4 25 -8z m274 -6 c21 -20 20 -43
-1 -66 -20 -22 -46 -23 -67 -2 -31 30 -9 84 34 84 10 0 26 -7 34 -16z m113 9
c14 -6 10 -9 -17 -13 -29 -4 -35 -9 -35 -30 0 -21 5 -26 33 -28 36 -4 34 -22
-3 -22 -28 0 -55 24 -55 50 0 22 25 50 45 50 7 0 22 -3 32 -7z m250 0 c14 -6
10 -9 -17 -13 -29 -4 -35 -9 -35 -30 0 -21 5 -26 33 -28 36 -4 34 -22 -3 -22
-28 0 -55 24 -55 50 0 22 25 50 45 50 7 0 22 -3 32 -7z m107 -9 c31 -30 9 -84
-34 -84 -24 0 -50 26 -50 50 0 24 26 50 50 50 10 0 26 -7 34 -16z m113 4 c7
-5 14 -5 18 2 10 16 42 12 49 -6 10 -25 7 -84 -4 -84 -5 0 -10 18 -10 41 0 33
-3 40 -17 37 -13 -2 -19 -14 -21 -41 -4 -50 -22 -47 -22 4 0 36 -2 40 -22 37
-19 -2 -24 -10 -26 -40 -5 -55 -22 -46 -22 10 0 48 0 49 33 49 17 0 37 -4 44
-9z m-327 -78 c0 -5 -4 -10 -10 -10 -5 0 -10 5 -10 10 0 6 5 10 10 10 6 0 10
-4 10 -10z"/>
<path d="M4640 8574 c-603 -55 -1084 -272 -1460 -660 -168 -174 -268 -316
-374 -533 -113 -233 -181 -485 -190 -711 l-5 -115 13 115 c45 382 177 720 399
1016 341 456 870 747 1512 831 130 17 536 23 660 9 103 -12 73 3 -52 25 -105
19 -402 32 -503 23z"/>
<path d="M6500 7806 c0 -2 8 -10 18 -17 15 -13 16 -12 3 4 -13 16 -21 21 -21
13z"/>
<path d="M6550 7740 c12 -16 24 -30 26 -30 3 0 -4 14 -16 30 -12 17 -24 30
-26 30 -3 0 4 -13 16 -30z"/>
<path d="M6612 7650 c144 -230 284 -565 335 -800 25 -119 25 -492 0 -630 -39
-208 -156 -486 -321 -761 -118 -199 -214 -319 -416 -524 -103 -104 -206 -218
-229 -253 -88 -132 -141 -303 -141 -460 0 -111 -25 -448 -41 -547 -51 -318
-187 -500 -384 -511 -84 -4 -70 -19 18 -18 58 0 84 6 131 29 82 39 165 125
210 216 59 121 67 167 76 449 8 232 12 270 43 425 62 302 105 383 334 631 175
189 246 275 342 419 155 234 319 567 380 774 96 322 80 683 -45 1008 -64 168
-262 544 -311 593 -9 8 0 -10 19 -40z"/>
<path d="M6785 7125 c4 -11 16 -47 27 -80 33 -98 57 -222 69 -357 24 -271 -34
-593 -153 -848 -22 -47 -55 -121 -74 -165 -32 -76 -33 -78 -9 -50 70 83 182
371 224 580 29 141 43 314 36 420 -12 174 -55 370 -105 475 -11 25 -18 36 -15
25z"/>
<path d="M2622 6380 c0 -19 2 -27 5 -17 2 9 2 25 0 35 -3 9 -5 1 -5 -18z"/>
<path d="M2720 5775 c0 -5 5 -17 10 -25 5 -8 10 -10 10 -5 0 6 -5 17 -10 25
-5 8 -10 11 -10 5z"/>
<path d="M2740 5729 c0 -14 45 -107 86 -177 53 -89 114 -170 202 -265 37 -39
92 -111 122 -159 61 -98 90 -120 39 -30 -55 98 -94 150 -186 250 -110 119
-149 173 -213 293 -27 52 -50 91 -50 88z"/>
<path d="M6451 5309 c-39 -68 -115 -155 -326 -369 -111 -113 -216 -227 -234
-253 -70 -104 -111 -224 -130 -387 -13 -107 -20 -540 -9 -540 4 0 8 52 8 115
0 167 19 449 36 528 29 138 97 266 203 383 25 27 109 109 187 181 145 136 233
239 278 331 31 61 20 71 -13 11z"/>
<path d="M6342 5276 c-43 -59 -125 -141 -256 -256 -228 -199 -370 -407 -382
-560 l-5 -55 20 72 c54 195 169 354 414 567 124 108 205 195 236 254 19 35 7
26 -27 -22z"/>
<path d="M3321 4843 c17 -38 73 -124 125 -193 148 -195 172 -258 199 -525 29
-277 53 -390 100 -461 26 -40 34 -27 15 24 -33 85 -59 235 -70 397 -23 329
-49 396 -229 589 -54 59 -102 123 -125 166 -20 38 -39 70 -41 70 -2 0 9 -30
26 -67z"/>
<path d="M3461 4766 c-1 -12 54 -102 92 -149 51 -65 41 -33 -15 46 -29 42 -58
84 -65 94 -6 10 -12 14 -12 9z"/>
<path d="M3670 4548 c0 -10 50 -121 50 -112 0 18 -31 104 -41 110 -5 3 -9 4
-9 2z"/>
<path d="M3746 4284 c-10 -26 -7 -266 5 -330 13 -74 40 -176 46 -170 2 2 -6
50 -18 107 -17 79 -22 140 -23 256 -1 84 -2 153 -2 153 -1 0 -5 -7 -8 -16z"/>
<path d="M3810 3429 c0 -38 43 -147 75 -192 42 -56 103 -103 157 -119 71 -21
63 20 -13 61 -66 37 -153 131 -188 203 -17 35 -31 56 -31 47z"/>
<path d="M4130 3115 c0 -12 13 -15 60 -15 47 0 60 3 60 15 0 12 -13 15 -60 15
-47 0 -60 -3 -60 -15z"/>
<path d="M4727 5489 c-61 -40 -61 -56 0 -23 26 13 57 23 68 22 18 -3 20 -10
19 -73 0 -38 -5 -111 -9 -162 -5 -57 -3 -149 4 -245 10 -118 10 -173 1 -238
-27 -195 -29 -175 29 -230 28 -26 56 -62 62 -79 15 -44 49 -43 49 1 0 27 -11
43 -61 90 l-62 57 7 58 c16 146 18 239 6 383 -9 120 -9 186 -1 289 10 117 10
136 -4 157 -21 32 -52 30 -108 -7z"/>
<path d="M4675 4451 c-43 -19 -100 -78 -116 -118 -14 -37 -11 -111 7 -144 34
-67 170 -91 255 -46 111 59 137 261 39 312 -40 21 -135 19 -185 -4z m152 -83
c46 -43 19 -143 -48 -180 -73 -41 -169 6 -155 76 19 96 143 160 203 104z"/>
<path d="M2150 500 c0 -5 5 -10 10 -10 6 0 10 5 10 10 0 6 -4 10 -10 10 -5 0
-10 -4 -10 -10z"/>
<path d="M536 418 c-28 -39 -21 -48 39 -48 59 0 67 9 45 51 -15 27 -64 25 -84
-3z"/>
<path d="M986 424 c-50 -50 -21 -144 44 -144 48 0 80 50 66 104 -13 53 -75 75
-110 40z"/>
<path d="M1616 408 c-32 -46 -8 -118 39 -118 28 0 55 34 55 70 0 36 -27 70
-55 70 -13 0 -31 -10 -39 -22z"/>
<path d="M8762 373 c5 -26 38 -29 38 -4 0 15 -6 21 -21 21 -14 0 -19 -5 -17
-17z"/>
<path d="M8754 325 c-8 -21 10 -39 30 -32 22 9 20 24 -4 37 -16 9 -22 8 -26
-5z"/>
<path d="M8874 365 c-9 -38 3 -75 26 -75 13 0 22 9 26 25 9 38 -3 75 -26 75
-13 0 -22 -9 -26 -25z"/>
<path d="M9086 331 c-11 -18 6 -42 28 -39 29 4 29 42 -1 46 -11 2 -24 -1 -27
-7z"/>
<path d="M9194 365 c-9 -38 3 -75 26 -75 13 0 22 9 26 25 9 38 -3 75 -26 75
-13 0 -22 -9 -26 -25z"/>
<path d="M9314 375 c-4 -9 -2 -21 4 -27 15 -15 44 -1 40 19 -4 23 -36 29 -44
8z"/>
<path d="M9437 350 c-18 -29 -18 -30 2 -30 17 0 21 6 21 30 0 17 -1 30 -3 30
-1 0 -11 -13 -20 -30z"/>
<path d="M7185 340 c-4 -6 5 -10 19 -10 14 0 26 5 26 10 0 6 -9 10 -19 10 -11
0 -23 -4 -26 -10z"/>
<path d="M7464 336 c-10 -26 4 -48 28 -44 17 2 23 10 23 28 0 18 -6 26 -23 28
-13 2 -25 -3 -28 -12z"/>
<path d="M7824 336 c-10 -26 4 -48 28 -44 17 2 23 10 23 28 0 18 -6 26 -23 28
-13 2 -25 -3 -28 -12z"/>
<path d="M8294 336 c-10 -26 4 -48 28 -44 17 2 23 10 23 28 0 18 -6 26 -23 28
-13 2 -25 -3 -28 -12z"/>
<path d="M8990 8591 c-30 -9 -118 -47 -195 -83 -77 -36 -192 -89 -255 -118
-239 -109 -452 -221 -763 -402 -38 -22 -66 -42 -63 -45 2 -3 62 23 133 57 133
66 440 208 723 337 91 41 228 100 305 129 151 58 230 101 230 124 0 22 -51 22
-115 1z"/>
<path d="M3 8004 c-3 -8 1 -22 8 -29 22 -21 185 -99 279 -133 96 -35 518 -168
840 -266 119 -36 233 -72 254 -81 21 -9 40 -14 42 -12 2 2 -29 16 -68 32 -40
15 -192 78 -338 140 -688 292 -722 305 -859 341 -109 28 -149 30 -158 8z"/>
<path d="M9515 6945 c-191 -18 -583 -68 -790 -101 -167 -26 -497 -98 -410 -89
28 3 129 12 225 19 96 8 263 24 370 35 107 11 305 27 440 35 352 22 378 25
411 41 54 28 29 61 -53 69 -24 3 -110 -2 -193 -9z"/>
<path d="M1320 5764 c-359 -48 -1086 -216 -1212 -279 -40 -21 -98 -74 -98 -91
0 -27 32 -44 83 -44 53 0 91 12 347 107 260 97 458 157 785 239 297 74 323 82
265 82 -36 0 -112 -6 -170 -14z"/>
<path d="M7881 5346 c2 -2 99 -38 214 -81 340 -124 444 -169 752 -321 215
-107 306 -146 343 -151 52 -6 80 6 80 35 0 21 -64 79 -121 107 -138 71 -541
219 -839 310 -204 62 -449 120 -429 101z"/>
<path d="M1875 4482 c-49 -26 -313 -162 -585 -303 -272 -141 -545 -282 -607
-313 -131 -67 -213 -124 -213 -148 0 -25 17 -23 112 12 112 41 636 321 933
498 102 61 428 274 450 293 14 14 6 10 -90 -39z"/>
<path d="M7090 4287 c0 -3 37 -40 81 -83 119 -115 290 -303 441 -482 141 -169
383 -415 436 -445 30 -17 33 -17 39 -1 9 24 -42 120 -117 219 -113 151 -299
326 -660 621 -194 159 -220 179 -220 171z"/>
<path d="M2529 3263 c-63 -69 -150 -167 -194 -218 -44 -50 -113 -129 -153
-174 -70 -78 -152 -194 -152 -213 0 -46 117 77 305 322 248 320 316 410 312
410 -2 0 -55 -57 -118 -127z"/>
</g>
</svg>
