<?xml version="1.0" standalone="no"?>
<!DOCTYPE svg PUBLIC "-//W3C//DTD SVG 20010904//EN"
 "http://www.w3.org/TR/2001/REC-SVG-20010904/DTD/svg10.dtd">
<svg version="1.0" xmlns="http://www.w3.org/2000/svg"
 width="225.000000pt" height="225.000000pt" viewBox="0 0 225.000000 225.000000"
 preserveAspectRatio="xMidYMid meet">
<metadata>
Created by potrace 1.16, written by Peter Selinger 2001-2019
</metadata>
<g transform="translate(0.000000,225.000000) scale(0.100000,-0.100000)"
fill="#000000" stroke="none">
<path d="M1030 2239 c-209 -15 -404 -89 -575 -216 -482 -358 -593 -1035 -253
-1536 126 -186 352 -355 568 -425 331 -108 696 -57 983 137 507 342 643 1045
300 1552 -230 340 -606 519 -1023 488z m227 -39 c163 -22 331 -86 473 -179 81
-53 221 -191 279 -276 183 -264 241 -590 161 -900 -26 -102 -114 -281 -178
-365 -62 -82 -189 -203 -265 -253 -210 -139 -477 -206 -713 -178 -478 55 -851
393 -949 861 -99 472 135 957 571 1180 190 97 415 137 621 110z"/>
<path d="M975 2151 c-200 -33 -375 -113 -524 -241 -163 -141 -273 -317 -333
-536 -18 -67 -21 -105 -21 -244 0 -146 3 -176 26 -264 98 -367 376 -644 746
-744 85 -22 115 -26 256 -25 139 0 172 3 255 25 370 99 654 384 746 745 142
559 -192 1118 -755 1264 -85 22 -312 33 -396 20z m213 -326 c91 -11 172 -34
247 -72 39 -19 76 -40 83 -46 10 -8 19 -7 34 2 24 15 33 9 20 -14 -7 -14 3
-30 52 -80 99 -101 170 -238 188 -365 15 -103 20 -114 53 -121 l30 -7 -32 -1
c-30 -1 -32 -3 -38 -48 -38 -302 -215 -526 -488 -617 -42 -14 -157 -35 -194
-36 -8 0 -14 -14 -15 -32 l-1 -33 -4 32 c-4 31 -6 32 -61 38 -346 40 -597 291
-637 638 -6 56 -7 57 -38 58 l-32 1 32 9 c33 10 35 14 48 114 9 63 29 124 67
199 107 214 311 352 561 381 56 6 57 7 59 38 l1 32 4 -32 c4 -31 6 -32 61 -38z
m-717 -144 c36 -36 36 -56 4 -103 l-25 -38 -65 47 -64 46 30 39 c39 48 77 51
120 9z m1478 -87 c28 -36 26 -70 -5 -99 -36 -33 -96 -34 -118 -3 -25 36 -20
73 15 102 40 34 81 34 108 0z m-1493 -899 c9 -35 -17 -71 -61 -85 -43 -14 -74
2 -105 53 l-19 31 71 42 72 43 18 -29 c10 -17 20 -41 24 -55z m1431 5 c56 -34
56 -111 -1 -139 -25 -12 -33 -11 -62 2 -65 31 -80 91 -34 137 25 25 56 25 97
0z m-1375 -146 c-13 -26 -21 -48 -19 -51 3 -2 25 6 51 19 36 17 49 19 58 10
10 -10 0 -24 -44 -68 -34 -35 -60 -54 -68 -49 -8 5 -2 18 22 42 l33 35 -39
-16 c-59 -24 -71 -15 -46 33 28 56 25 60 -14 22 -20 -20 -39 -30 -46 -26 -8 5
7 27 46 66 52 52 60 57 73 44 13 -13 13 -20 -7 -61z"/>
<path d="M714 1582 c-53 -48 -106 -116 -133 -170 -23 -46 -20 -63 22 -110 l21
-22 36 77 c20 43 57 103 82 134 44 54 46 57 35 93 -7 20 -14 36 -17 36 -3 -1
-23 -18 -46 -38z"/>
<path d="M1499 1562 l-25 -30 44 -58 c25 -33 59 -90 77 -127 l32 -69 26 32
c15 17 27 41 27 53 0 32 -52 117 -107 176 l-48 52 -26 -29z"/>
<path d="M766 1479 c-45 -50 -99 -148 -111 -200 -6 -25 -2 -29 77 -69 l83 -41
12 60 c13 63 63 194 87 227 13 17 9 21 -43 46 -31 15 -57 28 -58 28 0 0 -22
-23 -47 -51z"/>
<path d="M1458 1488 c-4 -9 -35 -30 -70 -48 -35 -18 -51 -29 -36 -26 20 5 26
3 22 -7 -2 -7 6 -42 20 -78 13 -35 27 -85 31 -111 l7 -46 41 14 c23 8 61 26
85 40 38 23 43 29 37 52 -19 84 -124 244 -137 210z"/>
<path d="M926 1428 c-26 -47 -69 -163 -80 -217 l-6 -34 76 6 c78 6 104 17 104
47 0 10 -12 53 -26 96 -16 50 -24 91 -20 112 7 47 -18 42 -48 -10z"/>
<path d="M1310 1349 c-21 -12 -26 -17 -12 -14 54 15 -10 -68 -66 -84 -34 -10
-35 -10 -4 -6 l32 5 -15 -30 c-14 -28 -14 -30 2 -31 10 0 51 -4 91 -8 l73 -7
-6 36 c-10 50 -47 160 -54 160 -3 -1 -22 -10 -41 -21z"/>
<path d="M488 1113 c16 -3 22 -11 22 -32 0 -30 39 -89 85 -131 l28 -25 -7 50
c-4 28 -9 67 -12 88 -5 29 -3 37 10 37 12 0 16 -11 17 -47 0 -27 6 -70 12 -98
12 -48 14 -51 77 -82 35 -17 81 -36 100 -41 l36 -9 -18 66 c-26 94 -35 195
-17 189 9 -3 16 -27 21 -70 6 -67 36 -185 47 -193 13 -8 181 -28 187 -22 3 3
0 65 -6 137 l-13 131 29 30 28 29 -325 -1 c-178 -1 -314 -4 -301 -6z"/>
<path d="M1131 793 c1 -181 4 -318 6 -306 2 13 13 23 25 25 11 2 27 13 36 26
14 21 14 22 -22 22 -20 0 -36 5 -36 10 0 6 18 10 41 10 32 0 47 6 68 29 27 29
106 169 99 176 -1 2 -23 -1 -48 -5 -57 -11 -140 -12 -140 -2 0 4 44 13 98 20
65 8 101 17 109 28 13 18 39 126 49 202 6 55 24 72 24 23 0 -37 -25 -167 -39
-203 l-10 -27 57 20 c31 11 76 29 99 40 48 23 59 48 70 157 4 41 10 62 19 62
14 0 11 -71 -6 -137 -5 -18 -5 -33 0 -33 19 0 100 103 100 129 0 33 10 47 35
54 11 2 -127 5 -307 6 l-328 1 1 -327z"/>
<path d="M534 955 c13 -59 80 -179 121 -221 24 -23 62 -52 85 -64 l43 -22 -38
46 c-20 25 -54 79 -74 120 -25 51 -53 89 -90 122 -54 48 -54 49 -47 19z"/>
<path d="M1663 932 c-29 -27 -60 -67 -71 -92 -11 -25 -40 -75 -65 -113 l-46
-67 41 22 c59 34 116 101 153 181 27 60 48 118 42 117 -1 -1 -25 -22 -54 -48z"/>
<path d="M683 841 c20 -48 94 -156 128 -188 31 -28 52 -37 142 -57 l29 -7 -27
43 c-14 24 -40 71 -58 106 -18 35 -38 62 -47 62 -8 0 -52 15 -96 33 l-82 33
11 -25z"/>
<path d="M1495 834 c-44 -18 -87 -34 -95 -34 -9 0 -29 -27 -47 -62 -18 -35
-44 -83 -59 -107 -23 -38 -24 -42 -8 -38 11 3 45 13 76 21 47 13 65 25 102 68
36 41 128 192 114 187 -2 -1 -39 -17 -83 -35z"/>
<path d="M900 783 c0 -16 99 -177 117 -190 9 -7 32 -13 51 -13 l33 0 -6 73
c-10 121 -5 113 -88 120 -41 4 -81 9 -91 13 -9 3 -16 2 -16 -3z"/>
</g>
</svg>
