<?xml version="1.0" standalone="no"?>
<!DOCTYPE svg PUBLIC "-//W3C//DTD SVG 20010904//EN"
 "http://www.w3.org/TR/2001/REC-SVG-20010904/DTD/svg10.dtd">
<svg version="1.0" xmlns="http://www.w3.org/2000/svg"
 width="551.000000pt" height="541.000000pt" viewBox="0 0 551.000000 541.000000"
 preserveAspectRatio="xMidYMid meet">
<metadata>
Created by potrace 1.16, written by Peter Selinger 2001-2019
</metadata>
<g transform="translate(0.000000,541.000000) scale(0.100000,-0.100000)"
fill="#000000" stroke="none">
<path d="M2667 5189 c-104 -24 -183 -108 -228 -239 -20 -61 -21 -82 -20 -325
1 -245 14 -680 26 -915 4 -58 3 -110 -2 -115 -18 -24 -631 -435 -647 -435 -4
0 -6 17 -6 37 0 55 -34 116 -79 141 -48 27 -90 28 -142 1 -64 -32 -79 -75 -79
-239 l0 -136 -142 -89 c-422 -267 -837 -538 -877 -572 -26 -22 -47 -55 -69
-106 -42 -100 -77 -221 -69 -240 6 -15 11 -15 59 2 29 10 202 87 385 170 182
83 333 151 336 151 3 0 7 -15 9 -32 2 -25 8 -34 26 -36 20 -3 22 1 22 40 0 53
4 58 61 85 49 23 59 21 59 -8 0 -21 24 -31 39 -16 6 6 11 26 11 44 0 27 5 35
28 44 15 6 61 26 103 45 42 19 79 34 83 34 3 0 6 -16 6 -35 0 -23 6 -38 16
-42 22 -8 34 14 34 63 l0 41 90 42 c110 50 120 51 120 11 0 -18 6 -33 15 -37
22 -8 28 2 35 55 l5 47 79 28 c78 27 82 27 290 25 l211 -3 12 -310 c24 -656
40 -844 90 -1088 20 -97 34 -179 32 -180 -4 -3 -30 -19 -309 -202 -244 -160
-343 -241 -354 -290 -11 -49 -15 -101 -8 -112 7 -12 20 -8 437 131 348 116
335 113 351 92 7 -11 16 -24 19 -30 4 -8 6 -8 10 0 3 6 12 19 19 30 16 21 16
21 341 -89 483 -163 459 -158 449 -82 -11 86 -17 94 -114 176 -48 41 -306 214
-497 335 -35 21 -63 44 -63 49 0 6 15 85 34 175 48 231 65 433 89 1085 l12
310 211 3 c211 2 212 2 290 -26 l79 -28 5 -47 c7 -52 13 -62 35 -54 9 4 15 19
15 37 0 40 10 39 119 -11 l90 -41 3 -52 c3 -43 6 -51 23 -51 16 0 21 8 23 38
4 45 2 45 134 -16 84 -39 87 -41 90 -76 2 -29 8 -37 26 -39 16 -3 22 2 22 16
0 30 9 32 59 9 57 -27 61 -32 61 -84 0 -35 3 -43 19 -43 20 0 31 18 31 51 0
10 3 19 6 19 3 0 155 -68 337 -151 387 -177 435 -195 444 -173 12 32 -75 282
-114 327 -17 19 -292 203 -549 367 -65 41 -153 98 -196 125 -42 28 -127 82
-188 120 l-110 70 0 135 c-1 164 -15 207 -79 239 -102 53 -206 -7 -218 -124
-3 -30 -7 -55 -9 -55 -6 0 -280 179 -404 263 -63 44 -146 100 -184 125 l-68
46 6 106 c12 208 26 670 27 925 1 243 0 264 -20 325 -42 123 -119 206 -218
236 -51 16 -80 16 -136 3z"/>
</g>
</svg>
