<?xml version="1.0" standalone="no"?>
<!DOCTYPE svg PUBLIC "-//W3C//DTD SVG 20010904//EN"
 "http://www.w3.org/TR/2001/REC-SVG-20010904/DTD/svg10.dtd">
<svg version="1.0" xmlns="http://www.w3.org/2000/svg"
 width="871.000000pt" height="725.000000pt" viewBox="0 0 871.000000 725.000000"
 preserveAspectRatio="xMidYMid meet">
<metadata>
Created by potrace 1.16, written by Peter Selinger 2001-2019
</metadata>
<g transform="translate(0.000000,725.000000) scale(0.100000,-0.100000)"
fill="#000000" stroke="none">
<path d="M3790 7108 c10 -29 91 -249 180 -488 89 -239 186 -500 215 -580 30
-80 88 -237 130 -350 42 -113 139 -374 215 -580 76 -206 173 -467 215 -580 42
-113 87 -234 100 -270 13 -36 35 -96 50 -134 31 -82 28 -86 -60 -86 -34 0
-335 -13 -670 -30 -336 -16 -718 -34 -850 -40 -247 -10 -701 -50 -1070 -95
-115 -14 -215 -25 -221 -25 -6 0 -150 160 -320 355 l-309 355 -102 0 c-56 0
-104 -3 -106 -7 -2 -5 8 -48 23 -98 104 -335 210 -708 203 -714 -4 -4 -28 -13
-53 -20 -46 -14 -162 -70 -193 -94 -22 -18 -22 -40 1 -59 27 -25 156 -86 206
-99 25 -6 46 -16 46 -21 0 -7 -219 -749 -235 -795 -3 -10 22 -13 105 -13 l109
0 306 350 c284 324 309 350 339 350 17 0 83 -7 146 -15 236 -31 807 -85 1003
-95 177 -10 449 -23 1482 -71 132 -6 242 -13 244 -15 2 -2 -15 -52 -37 -111
-22 -59 -70 -189 -107 -288 -37 -99 -82 -220 -100 -270 -18 -49 -63 -169 -98
-265 -36 -96 -102 -274 -147 -395 -45 -121 -112 -303 -150 -405 -38 -102 -105
-284 -150 -405 -45 -121 -104 -281 -132 -355 -155 -421 -189 -512 -215 -577
-4 -10 30 -13 153 -13 l159 1 41 57 c50 69 274 379 488 674 l157 217 185 3
186 3 24 30 c22 28 24 39 24 142 0 104 -2 114 -24 140 -19 22 -35 29 -80 33
l-57 5 298 412 298 413 228 0 229 0 29 29 c29 29 29 31 29 139 0 104 -1 112
-26 141 -26 31 -26 31 -130 31 -57 0 -104 2 -104 5 0 3 60 79 133 169 72 90
183 227 246 305 l114 141 553 0 c441 0 577 3 671 15 427 56 952 249 1033 379
33 54 27 81 -30 136 -148 145 -690 322 -1100 359 -63 6 -344 11 -625 12 l-510
0 -243 302 -242 302 87 2 c116 4 130 8 153 46 16 26 20 50 20 130 0 114 -13
149 -61 166 -20 7 -115 11 -245 11 l-213 0 -295 408 c-280 386 -293 407 -268
410 114 10 132 36 132 187 0 104 -1 107 -29 136 l-29 29 -179 0 -179 0 -219
303 c-121 166 -280 386 -355 489 l-135 188 -152 0 -152 0 19 -52z"/>
<path d="M3430 6083 c-145 -4 -1637 -30 -2475 -44 -379 -6 -699 -15 -710 -19
-12 -5 44 -9 141 -9 188 -1 1540 -25 2624 -46 838 -16 1069 -19 1076 -12 3 2
-6 33 -19 68 l-24 64 -254 0 c-140 1 -301 0 -359 -2z"/>
<path d="M4155 4913 c-60 -1 -474 -9 -920 -18 -1608 -31 -2402 -45 -2519 -45
-66 0 -117 -2 -115 -4 5 -5 755 -21 2179 -46 619 -11 1266 -22 1438 -26 181
-4 312 -3 311 2 0 5 -13 38 -27 74 l-27 65 -105 1 c-58 0 -154 -1 -215 -3z"/>
<path d="M4440 2423 c-41 -1 -498 -9 -1015 -18 -517 -9 -1266 -22 -1665 -30
-399 -8 -800 -15 -892 -15 -105 0 -168 -4 -168 -10 0 -6 69 -10 188 -10 171 0
978 -14 2227 -40 814 -16 1365 -23 1365 -18 0 3 11 35 25 71 13 37 21 67 17
69 -4 2 -41 2 -82 1z"/>
<path d="M3540 1239 c-190 -4 -889 -17 -1555 -29 -665 -12 -1354 -25 -1530
-28 l-320 -7 295 -8 c162 -4 671 -14 1130 -22 459 -8 1203 -22 1653 -31 451
-9 822 -12 826 -8 9 11 51 122 51 135 0 10 -32 10 -550 -2z"/>
</g>
</svg>
