<?xml version="1.0" standalone="no"?>
<!DOCTYPE svg PUBLIC "-//W3C//DTD SVG 20010904//EN"
 "http://www.w3.org/TR/2001/REC-SVG-20010904/DTD/svg10.dtd">
<svg version="1.0" xmlns="http://www.w3.org/2000/svg"
 width="1200.000000pt" height="389.000000pt" viewBox="0 0 1200.000000 389.000000"
 preserveAspectRatio="xMidYMid meet">
<metadata>
Created by potrace 1.16, written by Peter Selinger 2001-2019
</metadata>
<g transform="translate(0.000000,389.000000) scale(0.100000,-0.100000)"
fill="#000000" stroke="none">
<path d="M1925 3623 c-13 -2 -53 -56 -114 -154 -51 -83 -121 -185 -154 -227
-195 -242 -555 -607 -807 -818 -174 -146 -369 -290 -427 -315 -32 -13 -47 -28
-62 -60 -41 -84 -29 -103 135 -219 245 -173 481 -378 739 -641 94 -96 197
-206 228 -246 32 -40 72 -80 88 -91 45 -28 309 -381 309 -413 0 -5 7 -9 15 -9
8 0 26 -18 40 -40 23 -37 29 -40 68 -40 51 0 74 21 188 175 223 302 647 749
944 996 151 125 385 304 461 352 56 35 84 73 84 114 0 48 -52 100 -237 239
-447 336 -826 684 -1006 923 -55 73 -128 163 -162 200 -69 75 -185 224 -185
240 0 28 -81 47 -145 34z m157 -443 c57 -22 74 -34 292 -217 287 -242 510
-475 715 -747 120 -160 121 -163 121 -226 0 -65 -18 -96 -175 -305 -196 -263
-463 -522 -797 -776 -195 -148 -212 -152 -364 -70 -108 58 -207 136 -357 280
-73 70 -170 160 -216 201 -116 103 -264 269 -384 430 -55 74 -111 145 -125
156 -17 15 -26 35 -29 67 -5 40 -1 53 25 94 17 26 47 64 68 83 20 19 73 85
119 145 113 150 276 327 429 465 70 63 134 119 142 123 8 4 14 15 14 23 0 8 8
17 18 21 9 3 35 22 58 42 95 85 255 212 276 221 39 15 115 11 170 -10z"/>
<path d="M1922 3108 c-101 -55 -381 -294 -610 -521 -191 -188 -330 -349 -398
-462 -45 -73 -49 -85 -48 -140 0 -38 7 -77 21 -106 41 -91 495 -569 754 -795
212 -184 271 -226 329 -232 27 -2 60 -2 73 2 34 8 205 121 301 198 162 131
470 451 671 698 38 47 86 104 107 127 53 59 51 92 -9 180 -191 281 -409 528
-713 811 -150 140 -249 212 -332 244 -63 24 -96 23 -146 -4z m153 -470 c40
-118 80 -232 89 -252 l15 -36 -60 0 -59 0 0 -260 0 -260 -73 0 -73 0 18 218
c9 119 17 236 17 260 l1 42 -55 0 c-30 0 -55 3 -55 8 0 5 110 403 137 495 4
11 9 15 15 9 5 -5 42 -106 83 -224z m-375 -435 c38 -27 70 -51 70 -54 0 -3
-30 -14 -67 -24 -89 -23 -134 -47 -167 -85 -52 -63 -31 -110 85 -188 62 -42
190 -56 433 -49 178 5 306 26 369 58 51 27 127 101 127 124 0 73 -58 116 -164
123 l-72 4 -19 46 c-11 26 -22 50 -24 55 -4 11 55 0 169 -31 52 -15 87 -28 78
-30 -29 -6 -21 -14 47 -59 35 -24 71 -56 80 -73 15 -30 15 -33 -9 -75 -26 -43
-64 -78 -142 -129 -64 -42 -210 -65 -449 -73 -214 -6 -312 2 -457 38 -159 40
-246 92 -288 172 -40 74 -9 128 111 193 56 30 196 96 217 103 2 1 35 -20 72
-46z m360 -515 c0 -7 9 -114 20 -238 11 -124 20 -231 20 -237 0 -10 -29 -13
-111 -13 l-111 0 6 35 c16 85 26 210 26 333 l0 132 75 0 c53 0 75 -4 75 -12z"/>
<path d="M4090 1945 l0 -1235 340 0 340 0 0 1235 0 1235 -340 0 -340 0 0
-1235z"/>
<path d="M5120 1945 l0 -1235 960 0 960 0 0 245 0 245 -595 0 -595 0 0 250 0
250 535 0 535 0 0 245 0 245 -535 0 -535 0 0 250 0 250 595 0 595 0 0 245 0
245 -960 0 -960 0 0 -1235z"/>
<path d="M7390 1945 l0 -1235 955 0 955 0 0 245 0 245 -595 0 -595 0 0 250 0
250 555 0 555 0 0 245 0 245 -555 0 -555 0 0 250 0 250 595 0 595 0 0 245 0
245 -955 0 -955 0 0 -1235z"/>
<path d="M9690 1945 l0 -1235 940 0 940 0 0 245 0 245 -600 0 -600 0 0 250 0
250 560 0 560 0 0 245 0 245 -560 0 -560 0 0 250 0 250 600 0 600 0 0 245 0
245 -940 0 -940 0 0 -1235z"/>
<path d="M2645 787 c-38 -17 -93 -79 -101 -113 -11 -44 4 -125 31 -165 49 -75
115 -95 189 -59 53 25 82 68 98 142 10 47 9 59 -9 99 -38 85 -134 129 -208 96z"/>
</g>
</svg>
