<?xml version="1.0" standalone="no"?>
<!DOCTYPE svg PUBLIC "-//W3C//DTD SVG 20010904//EN"
 "http://www.w3.org/TR/2001/REC-SVG-20010904/DTD/svg10.dtd">
<svg version="1.0" xmlns="http://www.w3.org/2000/svg"
 width="239.000000pt" height="247.000000pt" viewBox="0 0 239.000000 247.000000"
 preserveAspectRatio="xMidYMid meet">
<metadata>
Created by potrace 1.16, written by Peter Selinger 2001-2019
</metadata>
<g transform="translate(0.000000,247.000000) scale(0.100000,-0.100000)"
fill="#000000" stroke="none">
<path d="M1110 2147 c-94 -27 -176 -100 -204 -185 -25 -73 -21 -178 10 -240
32 -64 100 -125 161 -146 207 -71 413 79 406 296 -5 183 -197 325 -373 275z"/>
<path d="M1036 1492 c-27 -10 -51 -23 -54 -30 -6 -18 20 -15 69 8 24 11 49 20
56 20 7 0 -7 -44 -33 -107 -55 -131 -164 -451 -164 -481 0 -20 36 -50 47 -38
3 2 22 66 43 141 22 76 40 139 42 140 2 2 25 -38 50 -88 52 -100 108 -179 149
-210 22 -16 30 -17 48 -7 22 11 20 14 -51 89 -41 43 -96 116 -125 166 l-53 90
33 2 c58 5 141 25 178 44 61 30 89 72 89 131 0 45 -4 54 -38 88 -21 21 -55 43
-77 49 -58 16 -153 13 -209 -7z m226 -20 c72 -42 61 -164 -21 -218 -38 -25
-166 -63 -176 -52 -6 6 24 102 77 246 l20 54 37 -7 c20 -4 48 -14 63 -23z"/>
<path d="M1485 1192 c-79 -37 -164 -156 -165 -229 0 -36 29 -73 58 -73 25 0
78 35 98 65 l17 27 11 -34 c10 -30 15 -33 53 -36 36 -3 47 2 82 33 22 20 54
60 70 88 25 43 31 48 30 27 0 -14 -10 -55 -22 -92 -21 -63 -25 -70 -77 -100
-82 -50 -127 -132 -84 -156 45 -25 107 29 155 133 21 45 36 65 63 79 41 22
116 99 116 118 0 12 -39 -30 -40 -43 0 -9 -91 -72 -96 -66 -3 3 6 47 20 98 33
127 39 166 26 174 -18 11 -36 -12 -64 -84 -47 -119 -135 -211 -172 -180 -20
16 -18 32 11 90 14 27 23 54 20 59 -11 18 -31 10 -48 -19 -10 -17 -41 -55 -69
-86 -40 -45 -56 -55 -77 -53 -23 3 -26 7 -23 38 6 76 80 188 137 210 37 14 65
-3 65 -40 0 -22 4 -28 15 -24 19 8 20 58 2 73 -26 21 -71 22 -112 3z"/>
</g>
</svg>
