<?xml version="1.0" standalone="no"?>
<!DOCTYPE svg PUBLIC "-//W3C//DTD SVG 20010904//EN"
 "http://www.w3.org/TR/2001/REC-SVG-20010904/DTD/svg10.dtd">
<svg version="1.0" xmlns="http://www.w3.org/2000/svg"
 width="317.000000pt" height="461.000000pt" viewBox="0 0 317.000000 461.000000"
 preserveAspectRatio="xMidYMid meet">
<metadata>
Created by potrace 1.16, written by Peter Selinger 2001-2019
</metadata>
<g transform="translate(0.000000,461.000000) scale(0.100000,-0.100000)"
fill="#000000" stroke="none">
<path d="M2650 4441 l-95 -39 -3 -160 -2 -161 105 -3 105 -3 0 203 c0 111 -3
202 -7 201 -5 0 -51 -17 -103 -38z"/>
<path d="M2453 4360 l-43 -19 0 -129 0 -130 41 -4 c24 -2 43 1 45 7 3 6 3 75
2 152 l-3 142 -42 -19z"/>
<path d="M2010 4190 c-135 -55 -253 -101 -262 -104 -16 -4 -18 -20 -18 -166
l0 -162 -54 46 c-30 25 -57 46 -60 46 -3 0 -6 -549 -6 -1220 l0 -1220 -478 0
c-367 0 -482 -3 -495 -12 -9 -7 -58 -132 -111 -283 -51 -148 -107 -306 -123
-350 -16 -44 -28 -86 -26 -92 4 -10 68 -13 279 -13 l274 0 0 -154 0 -153 -31
-7 c-17 -3 -157 -6 -310 -6 l-279 0 0 -100 0 -100 1365 0 1365 0 0 100 0 99
-112 3 -113 3 -3 88 -3 88 -107 -3 -107 -3 -3 -83 -3 -83 -97 3 -97 3 -5 80
c-5 74 -7 80 -27 83 -25 4 -26 1 -23 -66 1 -23 -1 -56 -5 -72 -6 -29 -9 -30
-60 -30 l-54 0 -3 83 -3 82 -77 3 -78 3 0 49 0 50 75 0 75 0 0 55 0 55 -144 0
-145 0 -13 48 c-14 47 -14 47 12 53 14 4 85 7 158 8 l132 1 0 53 0 52 -75 -3
-75 -4 0 56 0 56 75 0 75 0 0 55 0 55 -160 1 c-88 1 -166 2 -172 3 -8 1 -14
19 -16 47 l-3 46 47 7 c26 3 105 6 175 6 l129 0 0 55 0 55 -75 0 -75 0 0 50 0
50 75 0 75 0 0 55 0 55 -152 0 c-196 0 -198 1 -198 55 l0 42 46 7 c26 3 105 6
175 6 l129 0 0 55 0 55 -75 0 -75 0 0 55 0 55 75 0 75 0 0 50 0 50 -129 0
c-70 0 -149 3 -175 6 l-47 7 3 46 3 46 173 3 172 2 0 55 0 55 -75 0 -75 0 0
55 0 55 75 0 75 0 0 50 0 50 -122 0 c-68 0 -147 3 -175 6 l-53 7 0 48 0 49
175 0 175 0 0 55 0 55 -75 0 -75 0 0 55 0 55 75 0 76 0 -3 300 -3 300 38 0 37
0 0 60 0 60 -100 0 -100 0 0 55 0 55 100 0 100 0 0 60 0 60 -190 0 -190 0 0
55 0 55 168 2 c92 1 176 2 187 2 17 1 20 9 23 58 l3 57 -98 3 -98 3 0 55 c0
42 4 55 15 56 8 1 52 2 98 3 l82 1 0 105 c0 78 -3 105 -12 104 -7 -1 -123 -45
-258 -99z m-1135 -2882 c-3 -18 -9 -53 -13 -78 l-8 -45 -112 -3 c-61 -1 -112
1 -112 6 0 20 44 138 54 144 6 4 53 8 104 8 l93 0 -6 -32z m255 -48 l0 -80
-121 0 -121 0 6 23 c3 13 8 49 12 80 l7 57 108 0 109 0 0 -80z m254 63 c2 -10
7 -38 11 -63 4 -25 9 -53 11 -62 5 -16 -5 -18 -115 -18 l-121 0 0 80 0 80 104
0 c91 0 105 -2 110 -17z m162 -63 c13 -41 24 -76 24 -77 0 -2 -26 -3 -59 -3
l-58 0 -12 69 c-15 97 -17 93 35 89 l46 -3 24 -75z m-714 -115 c21 -8 -8 -172
-31 -178 -9 -2 -66 -2 -127 1 l-112 4 27 82 28 81 79 6 c43 3 89 6 101 7 12 1
28 0 35 -3z m244 -5 l54 0 0 -84 0 -83 -121 -6 c-67 -3 -128 -3 -136 0 -13 5
-12 61 4 138 8 42 19 47 87 41 32 -4 83 -6 112 -6z m347 -42 c3 -24 9 -62 13
-85 l7 -43 -137 0 -136 0 0 85 0 85 124 0 123 0 6 -42z m161 26 c3 -9 9 -47
12 -85 l7 -69 -56 0 c-61 0 -60 -1 -71 75 -4 22 -9 52 -12 68 l-6 27 60 0 c45
0 61 -4 66 -16z m-787 -192 c20 -13 -5 -140 -28 -147 -12 -4 -19 -16 -19 -31
0 -18 -5 -24 -23 -24 -18 0 -22 5 -22 33 l0 32 -102 -4 c-57 -2 -103 1 -102 5
0 5 10 36 22 69 l22 60 93 1 c51 1 95 4 99 8 9 8 45 7 60 -2z m256 -2 l77 0 0
-65 0 -65 -98 0 c-104 0 -122 -7 -122 -47 0 -19 -5 -23 -31 -23 -28 0 -31 3
-27 25 3 14 0 29 -7 35 -9 7 -10 25 -3 67 12 78 21 87 83 79 27 -3 85 -6 128
-6z m395 -17 c5 -10 12 -39 16 -64 l7 -46 -68 -6 c-37 -4 -105 -7 -150 -7
l-83 0 0 70 0 70 135 0 c118 0 135 -2 143 -17z m160 -402 c2 -97 -1 -148 -9
-157 -12 -15 -138 -20 -198 -8 l-31 7 0 154 0 154 118 -3 117 -3 3 -144z"/>
<path d="M2554 3961 c-2 -2 -4 -31 -4 -63 l0 -58 105 0 105 0 0 63 0 62 -101
0 c-55 0 -103 -2 -105 -4z"/>
<path d="M2550 3670 l0 -60 105 0 105 0 0 60 0 60 -105 0 -105 0 0 -60z"/>
<path d="M2550 3440 l0 -60 105 0 105 0 0 60 0 60 -105 0 -105 0 0 -60z"/>
<path d="M2557 3263 c-4 -3 -7 -33 -7 -65 l0 -58 105 0 105 0 0 65 0 65 -98 0
c-54 0 -102 -3 -105 -7z"/>
<path d="M2340 3011 l0 -231 25 0 25 0 -2 216 c-3 212 -3 217 -25 232 l-23 14
0 -231z"/>
<path d="M2600 2905 l0 -125 105 0 105 0 0 33 c0 23 -8 41 -25 57 -22 21 -25
32 -25 92 l0 68 -80 0 -80 0 0 -125z"/>
<path d="M2600 2615 l0 -56 103 3 102 3 3 53 3 52 -105 0 -106 0 0 -55z"/>
<path d="M2600 2400 l0 -50 105 0 105 0 0 50 0 50 -105 0 -105 0 0 -50z"/>
<path d="M2600 2185 l0 -56 103 3 102 3 0 50 0 50 -102 3 -103 3 0 -56z"/>
<path d="M2600 1970 l0 -50 105 0 105 0 0 50 0 50 -105 0 -105 0 0 -50z"/>
<path d="M2600 1755 l0 -55 106 0 105 0 -3 53 -3 52 -102 3 -103 3 0 -56z"/>
<path d="M2600 1535 l0 -56 103 3 102 3 3 53 3 52 -105 0 -106 0 0 -55z"/>
<path d="M2600 1325 l0 -55 106 0 105 0 -3 53 -3 52 -102 3 -103 3 0 -56z"/>
<path d="M2600 1105 l0 -56 103 3 102 3 3 53 3 52 -105 0 -106 0 0 -55z"/>
<path d="M2600 890 l0 -50 105 0 105 0 0 50 0 50 -105 0 -105 0 0 -50z"/>
<path d="M2600 675 l0 -55 105 0 105 0 0 55 0 55 -105 0 -105 0 0 -55z"/>
</g>
</svg>
