<?xml version="1.0" standalone="no"?>
<!DOCTYPE svg PUBLIC "-//W3C//DTD SVG 20010904//EN"
 "http://www.w3.org/TR/2001/REC-SVG-20010904/DTD/svg10.dtd">
<svg version="1.0" xmlns="http://www.w3.org/2000/svg"
 width="416.000000pt" height="292.000000pt" viewBox="0 0 416.000000 292.000000"
 preserveAspectRatio="xMidYMid meet">
<metadata>
Created by potrace 1.16, written by Peter Selinger 2001-2019
</metadata>
<g transform="translate(0.000000,292.000000) scale(0.100000,-0.100000)"
fill="#000000" stroke="none">
<path d="M3340 2239 c-47 -7 -868 -111 -1740 -221 -135 -17 -248 -35 -251 -40
-16 -25 -320 -840 -315 -845 3 -3 245 -27 538 -54 585 -53 598 -55 598 -72 1
-7 0 -94 0 -195 -1 -142 2 -182 12 -182 23 0 41 17 33 30 -6 10 -11 9 -22 -5
-11 -16 -13 7 -13 157 0 181 1 184 40 192 3 1 10 4 16 8 16 10 865 -67 872
-80 4 -5 8 12 9 39 1 54 19 78 78 106 23 11 25 13 6 9 -23 -5 -23 -4 -16 49 5
46 4 55 -12 63 -23 12 -404 25 -419 15 -18 -13 -47 -162 -31 -163 1 0 79 -7
172 -15 94 -8 178 -15 188 -15 10 0 17 -8 17 -20 0 -13 -7 -20 -19 -20 -10 0
-231 18 -492 40 -596 51 -1305 109 -1426 117 -50 3 -97 9 -104 14 -9 5 0 40
39 141 28 73 97 255 153 403 56 149 103 271 104 273 2 2 111 17 242 33 131 15
423 51 648 78 226 28 582 71 793 97 210 25 384 45 386 43 2 -2 -29 -213 -70
-469 -40 -256 -72 -471 -69 -477 2 -7 -2 -13 -10 -13 -20 0 -52 -49 -60 -92
-5 -24 -2 -45 9 -64 8 -16 15 -23 16 -16 0 7 -4 21 -9 31 -7 12 -2 32 17 70
23 45 35 57 72 72 37 15 41 25 8 20 -13 -2 -10 22 62 488 39 248 70 458 70
466 0 17 -30 18 -120 4z"/>
<path d="M3245 2169 c-33 -5 -113 -15 -178 -23 -65 -8 -121 -17 -124 -20 -10
-10 -32 -121 -25 -128 12 -11 393 29 408 44 7 7 15 40 16 73 3 69 4 69 -97 54z"/>
<path d="M2713 2106 c-89 -12 -166 -25 -171 -31 -13 -15 -36 -105 -28 -112 10
-10 308 17 336 30 20 10 27 23 34 65 5 31 5 56 0 61 -5 4 -82 -2 -171 -13z"/>
<path d="M2351 2065 c-163 -19 -158 -17 -176 -77 -8 -28 -15 -54 -15 -56 0 -6
227 8 270 17 38 7 54 30 65 94 8 43 23 41 -144 22z"/>
<path d="M2080 2033 c-14 -2 -62 -8 -108 -14 -90 -12 -94 -15 -109 -93 l-6
-29 107 8 c153 10 158 12 177 71 9 27 14 52 12 57 -4 7 -28 7 -73 0z"/>
<path d="M3086 1981 c-192 -18 -190 -17 -202 -110 l-7 -54 102 6 c55 4 146 10
202 13 61 4 106 12 114 20 14 14 30 118 20 134 -7 12 -10 12 -229 -9z"/>
<path d="M2657 1944 c-76 -7 -145 -18 -152 -24 -17 -14 -40 -109 -29 -119 5
-4 85 -3 177 3 187 12 179 9 197 89 16 76 30 72 -193 51z"/>
<path d="M2255 1909 c-49 -5 -94 -15 -101 -21 -14 -16 -34 -74 -34 -99 0 -20
-1 -20 228 -3 71 6 74 7 87 37 7 18 16 47 20 65 l7 32 -59 -1 c-32 -1 -98 -6
-148 -10z"/>
<path d="M1933 1880 c-40 -3 -74 -8 -76 -11 -3 -2 -7 -29 -10 -59 l-7 -55 83
3 c45 2 100 7 121 11 38 6 40 9 53 56 7 28 13 53 13 58 0 8 -71 7 -177 -3z"/>
<path d="M3040 1800 c-58 -4 -119 -8 -136 -9 -36 -1 -50 -24 -60 -102 l-7 -52
209 7 c169 5 211 10 220 22 14 18 28 119 19 134 -7 11 -80 11 -245 0z"/>
<path d="M2625 1778 c-82 -6 -155 -14 -161 -19 -12 -10 -34 -84 -34 -113 0
-14 22 -16 159 -16 88 0 171 4 184 9 19 8 26 21 37 69 13 64 9 83 -18 80 -9 0
-84 -5 -167 -10z"/>
<path d="M2184 1753 c-70 -4 -84 -15 -102 -79 -7 -23 -12 -44 -12 -48 0 -3 67
-6 149 -6 168 0 167 0 188 79 7 25 12 49 13 54 0 7 -111 7 -236 0z"/>
<path d="M1871 1731 c-41 -6 -44 -8 -62 -56 -10 -27 -19 -54 -19 -58 0 -4 53
-6 118 -5 l117 3 16 35 c9 19 20 47 23 63 l6 27 -77 -2 c-43 0 -98 -4 -122 -7z"/>
<path d="M2986 1613 c-77 -2 -145 -8 -151 -13 -15 -13 -40 -124 -31 -139 5 -7
76 -11 216 -11 l208 0 10 33 c6 17 13 53 17 78 7 55 0 60 -78 57 -29 -1 -115
-4 -191 -5z"/>
<path d="M2553 1601 c-72 -3 -134 -8 -137 -12 -10 -10 -33 -114 -29 -126 3 -8
25 -13 56 -13 40 0 48 3 39 12 -7 7 -30 13 -52 13 -21 0 -33 3 -27 7 21 13 54
9 80 -12 22 -17 40 -20 140 -20 80 0 118 4 124 13 15 18 36 115 29 132 -4 11
-18 14 -48 13 -24 -1 -102 -4 -175 -7z"/>
<path d="M2173 1593 c-64 -2 -105 -8 -111 -16 -17 -22 -42 -111 -34 -119 5 -5
76 -7 158 -6 l149 3 13 28 c7 15 14 46 15 70 l2 42 -45 1 c-25 0 -91 -1 -147
-3z"/>
<path d="M1843 1583 l-71 -4 -31 -58 c-16 -32 -27 -61 -24 -65 13 -12 260 -7
270 7 10 12 33 95 33 116 0 11 -19 11 -177 4z"/>
<path d="M1703 1418 c-12 -15 -37 -87 -38 -108 0 -13 23 -15 139 -18 123 -2
138 -1 132 13 -3 9 -2 14 3 11 9 -6 31 59 31 93 0 20 -4 21 -129 21 -91 0
-131 -4 -138 -12z"/>
<path d="M2023 1422 c-16 -10 -40 -79 -39 -112 l1 -25 140 -6 c98 -5 142 -3
147 5 4 6 8 7 8 2 0 -11 30 13 30 25 0 4 -10 10 -22 12 l-23 4 22 2 c17 1 25
11 34 41 7 22 10 42 8 44 -9 8 -295 15 -306 8z"/>
<path d="M2380 1405 c0 -23 31 -46 54 -40 20 5 20 4 -2 -7 -19 -9 -26 -8 -46
11 l-24 23 -13 -56 c-7 -31 -10 -59 -7 -62 3 -3 86 -6 184 -7 l178 -2 13 26
c7 15 14 48 15 75 l3 49 -177 2 c-145 1 -178 -1 -178 -12z"/>
<path d="M2792 1408 c-13 -17 -36 -121 -30 -138 6 -18 39 -22 57 -7 9 7 12 8
8 1 -4 -8 31 -13 115 -17 181 -10 244 -9 255 6 15 19 31 134 21 151 -8 14 -39
16 -212 16 -151 0 -206 -3 -214 -12z"/>
<path d="M1640 1245 c-6 -15 -8 -30 -5 -35 3 -5 0 -10 -5 -12 -6 -2 -12 -17
-13 -33 l-2 -30 128 -10 c71 -6 133 -7 138 -4 11 7 39 93 39 121 0 13 -8 18
-30 18 -17 0 -30 -5 -30 -12 0 -9 -3 -8 -10 2 -7 11 -34 16 -105 18 l-95 4
-10 -27z"/>
<path d="M1971 1250 c-12 -7 -25 -48 -38 -111 -5 -25 -3 -27 49 -32 139 -16
249 -19 262 -8 20 17 42 131 27 140 -6 4 -62 9 -124 10 -62 2 -124 4 -138 6
-14 2 -32 0 -38 -5z"/>
<path d="M2327 1233 c-13 -21 -37 -137 -30 -144 11 -11 335 -34 356 -26 15 6
29 44 42 119 6 34 5 36 -22 42 -52 10 -341 18 -346 9z"/>
<path d="M3493 1210 c-60 -24 -103 -86 -103 -149 0 -25 -6 -43 -15 -48 -11 -6
-15 -33 -17 -108 l-3 -100 -30 47 c-28 44 -55 63 -55 38 0 -6 20 -41 45 -78
30 -45 45 -77 45 -99 0 -39 -2 -39 -102 -17 -40 9 -82 18 -93 20 -11 1 -49 9
-85 16 -36 6 -86 12 -112 13 -27 0 -48 3 -48 8 0 4 -15 7 -32 7 -28 0 -36 -6
-51 -39 -18 -36 -21 -38 -64 -36 -31 1 -48 7 -55 19 -5 9 -13 14 -17 12 -12
-8 -12 55 0 91 6 18 14 31 19 28 5 -3 11 -1 15 5 3 5 16 10 27 10 12 0 19 3
15 6 -3 3 -19 3 -36 -1 -33 -7 -61 -46 -61 -84 0 -11 -9 -22 -19 -26 -11 -3
-18 -12 -15 -19 6 -16 -51 -66 -76 -66 -10 0 -28 12 -38 28 -18 24 -19 31 -7
59 7 17 22 33 32 36 10 3 2 5 -17 6 -20 0 -42 -5 -49 -11 -10 -11 -12 -10 -9
2 2 13 -17 15 -119 18 l-123 3 0 -79 c0 -47 -5 -83 -12 -90 -16 -16 -120 -16
-136 0 -7 7 -12 43 -12 90 l0 78 -44 0 c-30 0 -46 -5 -50 -16 -3 -8 -2 -12 4
-9 6 3 10 1 10 -4 0 -6 -6 -11 -14 -11 -8 0 -22 -10 -30 -21 -11 -16 -28 -23
-63 -26 -42 -3 -52 0 -72 21 -13 14 -28 23 -33 20 -13 -8 1 84 17 116 15 29
46 48 90 53 23 3 20 4 -12 6 -58 2 -102 -37 -110 -96 -3 -27 -11 -43 -19 -43
-8 0 -14 -5 -14 -11 0 -5 -4 -8 -8 -5 -5 3 -9 -1 -9 -9 0 -8 4 -15 9 -15 4 0
8 -5 8 -11 0 -5 -4 -8 -9 -5 -11 7 -48 -35 -45 -51 1 -7 2 -18 3 -24 0 -5 6
-7 12 -3 7 4 10 1 7 -7 -3 -8 2 -20 11 -27 14 -11 13 -12 -5 -3 -30 14 -57 58
-41 65 6 2 -12 3 -42 2 -29 -2 -48 -1 -43 3 7 4 8 12 2 21 -15 24 -12 73 7
100 l17 25 -22 -19 c-12 -11 -22 -27 -22 -38 0 -13 -7 -18 -26 -18 -21 0 -24
-3 -15 -13 8 -10 7 -14 -2 -14 -6 -1 -36 -3 -66 -6 -30 -2 -47 -1 -40 4 8 4
29 8 46 7 18 -1 36 2 40 6 4 4 -21 4 -56 2 -70 -6 -83 -12 -61 -27 12 -8 10
-9 -5 -3 -35 14 -161 2 -151 -14 2 -4 -6 -8 -17 -8 -59 -4 -127 -18 -127 -26
0 -5 4 -7 8 -4 4 2 14 1 22 -5 12 -7 10 -9 -7 -9 -12 0 -25 5 -28 11 -4 6 -19
7 -36 4 -32 -7 -35 -4 -17 25 9 14 9 23 2 30 -8 8 -17 2 -32 -22 l-22 -33 0
62 c0 34 5 65 11 69 6 3 9 19 7 35 -3 16 -2 30 1 31 3 2 16 21 27 43 25 46 71
74 129 75 32 1 36 3 20 10 -29 13 -78 12 -70 -1 4 -6 1 -10 -6 -8 -33 4 -51
-3 -77 -28 -32 -32 -54 -97 -45 -131 4 -18 1 -24 -16 -29 -19 -5 -21 -12 -21
-84 0 -88 -12 -101 -48 -52 -25 34 -51 23 -27 -13 14 -22 14 -25 0 -30 -10 -4
-13 -13 -10 -24 3 -10 0 -22 -6 -26 -9 -5 -10 -2 -6 10 8 21 -19 34 -36 17 -9
-9 -9 -11 3 -8 8 2 12 2 7 0 -4 -3 -4 -10 0 -16 3 -7 -2 -5 -13 4 -19 17 -44
15 -44 -2 0 -6 5 -7 10 -4 6 3 10 1 10 -4 0 -15 -27 -14 -32 0 -3 8 -10 9 -23
2 -11 -6 -42 -20 -68 -32 -26 -12 -45 -26 -42 -31 3 -6 1 -10 -4 -10 -6 0 -11
4 -11 10 0 6 -10 5 -25 -2 -14 -6 -25 -14 -25 -18 0 -4 -6 -7 -13 -7 -7 0 -25
-8 -40 -18 -21 -14 -25 -20 -15 -27 8 -5 4 -7 -13 -4 -31 5 -125 -56 -123 -80
2 -11 -2 -12 -11 -4 -9 7 -16 6 -23 -3 -10 -11 40 -13 295 -13 l307 1 6 25 c6
24 6 25 12 3 3 -12 1 -24 -6 -27 -6 -3 3 -4 19 -3 17 1 36 9 43 17 8 8 11 10
8 3 -4 -6 -3 -14 2 -17 5 -3 669 -7 1475 -10 l1467 -6 0 61 c0 37 -4 58 -10
54 -13 -8 -13 8 0 21 8 8 -5 19 -40 37 -27 14 -50 22 -50 17 0 -6 -10 0 -21
11 -17 17 -23 19 -30 8 -7 -11 -14 -8 -34 13 -26 28 -66 45 -83 34 -5 -3 -15
1 -22 10 -7 8 -19 13 -27 10 -9 -4 -11 -1 -7 6 5 7 2 9 -9 5 -9 -3 -17 -1 -19
5 -2 6 -18 11 -35 12 -17 0 -29 4 -26 9 2 4 -2 7 -11 7 -8 0 -23 3 -33 6 -17
5 -17 5 1 -10 17 -14 16 -15 -12 -14 -23 1 -28 5 -25 18 3 12 -4 21 -26 28
l-31 11 0 77 c0 73 2 81 36 130 44 63 37 98 -8 44 l-28 -34 0 69 c1 68 1 69
16 43 18 -34 27 -36 14 -4 -5 13 -6 27 -3 30 4 3 2 6 -4 6 -7 0 -6 16 3 47 24
79 79 122 156 124 33 0 38 2 23 9 -26 11 -74 11 -102 0z"/>
</g>
</svg>
