<?xml version="1.0" standalone="no"?>
<!DOCTYPE svg PUBLIC "-//W3C//DTD SVG 20010904//EN"
 "http://www.w3.org/TR/2001/REC-SVG-20010904/DTD/svg10.dtd">
<svg version="1.0" xmlns="http://www.w3.org/2000/svg"
 width="365.000000pt" height="406.000000pt" viewBox="0 0 365.000000 406.000000"
 preserveAspectRatio="xMidYMid meet">
<metadata>
Created by potrace 1.16, written by Peter Selinger 2001-2019
</metadata>
<g transform="translate(0.000000,406.000000) scale(0.100000,-0.100000)"
fill="#000000" stroke="none">
<path d="M1298 3548 c-62 -22 -33 -63 291 -407 173 -184 181 -195 165 -212
-14 -15 -15 -21 -4 -34 12 -14 15 -14 34 2 16 13 16 12 -2 -7 l-24 -25 -15 22
-15 23 -44 -37 c-25 -20 -46 -34 -47 -32 -26 34 -271 376 -292 407 -20 28 -55
57 -106 87 -65 37 -82 43 -115 39 -75 -10 -80 -13 -106 -61 -26 -47 -26 -53
-33 -324 -4 -151 -4 -290 0 -307 5 -24 27 -48 96 -102 49 -39 89 -74 89 -78 0
-5 -55 -17 -122 -28 l-123 -19 -46 -80 c-25 -45 -81 -146 -123 -225 -43 -80
-121 -223 -173 -318 -53 -95 -93 -175 -90 -178 4 -5 164 35 587 145 l65 17 75
105 c162 228 433 555 449 544 9 -5 80 43 211 145 152 117 232 172 239 163 58
-83 322 -424 356 -459 11 -11 25 -29 31 -40 11 -18 15 -17 95 21 46 22 102 54
124 71 31 24 56 33 104 38 100 11 164 41 235 107 91 85 121 153 121 279 0 87
-3 101 -32 160 -112 227 -369 294 -577 151 -146 -101 -198 -315 -118 -483 35
-72 82 -120 166 -168 l49 -28 -43 -13 c-53 -16 -63 -10 -104 66 -18 33 -45 80
-61 105 -55 87 -245 404 -245 409 0 3 16 17 35 30 40 27 43 41 16 65 -19 17
-24 16 -118 -15 l-99 -32 -154 113 c-118 86 -182 141 -269 234 -135 142 -184
176 -256 175 -27 0 -62 -5 -77 -11z m1639 -502 c176 -89 211 -320 70 -464
-110 -112 -302 -109 -410 7 -61 65 -79 110 -80 196 -2 137 76 241 213 286 45
15 154 2 207 -25z m-1547 -271 c37 -55 87 -126 110 -158 29 -40 37 -59 28 -62
-32 -12 -203 -34 -209 -27 -67 76 -209 257 -209 265 0 7 9 64 20 127 11 63 20
117 20 120 0 19 184 -185 240 -265z m74 -335 l31 -1 -33 -17 -32 -18 21 -21
c48 -48 -14 -72 -76 -30 l-34 23 -133 -33 c-73 -18 -143 -33 -156 -33 -16 0
-30 -13 -50 -47 -60 -103 -146 -226 -150 -214 -5 16 64 217 96 277 l27 49 115
22 c145 27 188 28 213 6 19 -17 20 -17 45 15 22 29 30 33 55 28 16 -3 44 -6
61 -6z"/>
<path d="M2524 1677 c-208 -188 -431 -369 -601 -486 l-89 -62 -83 -312 c-45
-172 -85 -320 -88 -331 -5 -19 96 31 372 184 66 36 191 104 277 150 l157 84
11 66 c5 36 37 225 69 420 32 195 58 356 57 357 -1 1 -38 -30 -82 -70z m-74
-332 c-11 -125 -20 -187 -47 -317 l-16 -77 -96 -39 c-114 -47 -230 -86 -237
-79 -5 5 144 108 218 150 43 25 47 31 58 85 33 165 111 414 125 400 3 -2 0
-58 -5 -123z"/>
<path d="M813 1276 c-308 -105 -516 -274 -640 -521 -70 -137 -100 -311 -89
-504 8 -144 12 -159 45 -169 14 -4 107 -7 206 -7 196 0 272 14 415 74 196 82
377 271 491 515 49 105 92 259 76 275 -16 16 -27 13 -27 -7 0 -30 -44 -152
-85 -232 -87 -175 -211 -303 -360 -375 -142 -69 -194 -80 -387 -80 -114 0
-171 4 -179 12 -20 20 -31 188 -20 295 22 198 84 331 221 469 115 116 247 192
415 239 37 10 60 22 60 31 0 24 -37 20 -142 -15z"/>
</g>
</svg>
